<?xml version="1.0" encoding="UTF-8"?>
<svg id="Camada_1" xmlns="http://www.w3.org/2000/svg" version="1.1" viewBox="0 0 424 244">
  <!-- Generator: Adobe Illustrator 30.2.1, SVG Export Plug-In . SVG Version: 2.1.1 Build 1)  -->
  <defs>
    <style>
      .st0 {
        fill: #12100c;
      }
    </style>
  </defs>
  <path class="st0" d="M210.6,17.4v80.9c.1,0,.1,0,.1,0,0,.1-.1.2-.2.2h-60.4c0,0-1,1.2-1,1.2,5.1,0,9.9,0,14.5,0s2.7,0,4,0h9.8c5.2,0,10.1,0,14.5,0,6.1,0,11.4,0,15.8,0,11.2,0,22.3,0,33.5,0,11.8,0,23.5,0,35.3,0l-.9-1.2c-8.7,0-17.5,0-26.3,0-2.1,0-4.2,0-6.3,0-9,0-18,0-27,0-.1,0-.2,0-.2-.2V17.4s-2.3-3.4-2.3-3.4l-2.9,3.4Z"/>
  <path class="st0" d="M204,25.4v66.9c0,0,0,.2-.2.2h-48.2s-.9,1-.9,1h53.6c0,0,.2,0,.2-.1,0-3.3,0-6.8,0-10.5,0-12.1-.1-26.6-.1-43.7s0-12.1,0-18.7l-4.5,5Z"/>
  <path class="st0" d="M197.2,32.9v52.7c0,0,0,.1-.1.1h-35.4s-.9,1-.9,1h40.9c0,0,.1,0,.1,0V27.8c0,0-4.6,5.1-4.6,5.1Z"/>
  <polygon class="st0" points="190.6 40.3 190.6 78.9 190.5 78.9 167.8 78.9 167.3 79.5 167 79.9 194.9 79.8 194.9 79.8 195 35.5 190.6 40.3"/>
  <path class="st0" d="M183.6,48.4v23.5c0,0,0,0-.1,0h-9.5s-.9,1-.9,1h15.1c0,0,.1,0,.1-.1v-29.6s0,0,0,0l-4.7,5.3Z"/>
  <path class="st0" d="M217.9,39.2c0,17-.1,31.4-.1,43.4,0,3.8,0,7.3,0,10.7,0,0,0,.2.2.2h53.6s-.9-1-.9-1h-48.2c0,0-.2-.1-.2-.2V25.4s-4.5-5-4.5-5c0,6.6,0,12.9,0,18.8"/>
  <path class="st0" d="M224.5,86.6c0,0,0,.1.1.1h40.9s-.9-1-.9-1h-35.4c0,0-.1,0-.1-.1v-52.7s-4.7-5.1-4.7-5.1v58.8Z"/>
  <polygon class="st0" points="231.4 79.8 231.5 79.8 259.4 79.9 259 79.5 258.5 78.9 235.8 78.9 235.7 78.9 235.7 40.3 231.4 35.5 231.4 79.8"/>
  <path class="st0" d="M237.9,43.2v29.7c0,0,0,.1.1.1h15.1s-.9-1-.9-1h-9.5c0,0-.1,0-.1,0v-23.5s-4.8-5.3-4.8-5.3h0Z"/>
  <path class="st0" d="M76,106.6c-28.1,0-58.9,22.2-58.9,59,0,.9,0,1.8,0,2.8,1.5,35.5,21.4,57.8,47.8,61.2,2.3.3,4.7.5,7.2.5,12.7,0,26.6-4.1,40.5-13l-3.1-7.2c-7.2,4.9-18.1,8.1-29.3,8.1s-.7,0-1,0c-20.9-.4-42.7-12.2-45-46.3h0c0-.1,0-.2,0-.3,0,0,0-.2,0-.2,0-.2,0-.3,0-.5,0-1.2,0-2.5,0-3.8,0-20.9,9.1-42,17-44.3.9-.3,1.8-.7,2.9-1,6.2-1.9,14.2-3,21.9-3s9.5.5,13.6,1.5c0,0,0,0,0,0,.1,0,.3,0,.4.1,0,0,0,0,0,0,0,0,0,0,0,0,0,0,0,0,.1,0,1.4.4,2.6.8,3.8,1.3l1.4,17.3,3.9,1.8s0,0,0,0c.4-.6,12.2-17.2,12.7-16.6,0,0,0,0,0,0-8.6-11.9-21.9-17.4-35.9-17.4h0Z"/>
  <path class="st0" d="M382.4,103.8l-18.3,5.9s.3.8.5,1.8c.3,1.3.5,2.7-.1,2.5,4.2,1.3,12.9,2.4,12.9,2.4,0,0,1,66.8,1,95.4v.5c0,8.4-6.9,8.6-11.4,10.3-1.8.5-2.4,1.6-2.4,2.9,0,1.3.7,2.7,1.3,3.3l40.5-.8s.6-1.2.6-2.6c0-.8-.2-1.6-.9-2.2l-13.5-4.8c0-.7-.1-2.7-.1-5.5,0-15.7,1.2-59.3,1.2-87.1s-.2-18.3-.6-22.1h0c0-.9-.7-1.9-2.9-1.9s-4.1.5-7.7,1.9"/>
  <path class="st0" d="M308.2,215.1c-.1,0-.3-.2-.4-.3,0,0,0,0-.1,0-3.9-2.7-5.2-6.1-5.2-8.9,0-1.6.4-3.1.9-4.2,0,0,0,0,0-.1,3.4-6.8,18-8.6,25-8.6s2.2,0,2.9.1c.6,0,.9.2.9.3,0,.3.1,3.1.1,6.6,0,6.2,0,14.5,0,14.6-3.9,2-9,3.1-13.8,3.1s-7.7-.8-10.4-2.5M320.4,143.7h0s0,0-.1,0h-.1c-.2,0-.3,0-.5,0-13.4.3-28.4,8.2-30.9,13.3,0,0,0,0,0,.1,0,1.7,9.3,14.2,10.4,14.6.1,0,.3,0,.5,0,1.1-.1,3.3-1.5,4.1-2.1,0,0,1.2-13.4,1.5-13.6,3.1-.7,5.9-1.1,8.3-1.3,22.5-1.6,17.6,17.7,18.7,29.7,0,0,0,.2,0,.2,0,.2,0,.3,0,.4,0,.1-.1.2-.2.2s-.1,0-.2,0c0,0-.1,0-.2-.1-9.2.7-16.3,1.8-21.9,3.1-11.1,2.6-20.9,5.9-21.4,18.3,0,.2,0,.5,0,.7-.1,10.3,7.5,20.9,18.9,22.1.7,0,1.4.1,2.1.1s.6,0,.9,0c5.3-.2,15-3,22.8-6.7,5.1,4.9,4,4.1,10.5,7l14.7-2.7s.9-1.9.9-3.2c0-.6-.2-1.1-.9-1.1-7.1-3.1-10.8-3.3-11.5-4.9,0-.2,0-.3,0-.5-.2-25.7,9.4-73.6-26.3-73.6h-.1Z"/>
  <path class="st0" d="M143,205.3c-2.6-6.1-3.5-12.9-3.5-19.3,0-14.1,4.6-26.7,6.9-27.7,8.7-3.9,25.2-5.9,34.1,4.8,5.1,6.1,7.4,15.9,7.4,25.7,0,9.8-2.3,19.7-6.3,26.2-4.2,1.9-9.9,3.2-15.6,3.3-.1,0-.3,0-.4,0-9.2,0-18.6-3.3-22.6-13M123.5,189c.5,16.5,8.7,32.5,24.3,38,1.5.5,3.1,1,4.6,1.4,2.6.6,5.2,1,7.7,1.2,1,0,2.1.1,3.1.1,22.4,0,40.9-17.5,40.4-44.5,0,0,0-.1,0-.2-.5-24-15.2-39.8-35.3-41.2-1.3,0-2.6-.1-3.9-.1-28.2,0-41.6,23.2-40.9,45.3"/>
  <path class="st0" d="M236.7,144s-18.4,6.3-19.9,7.1c-1.5.8-1.4,1.1-1.9,2.1-.1.2-.1.4-.1.7,0,1.1,1.1,2.4,2,2.8,2,.9,12.1.4,12.1,2,.1,5.8.2,15.6.2,26.5s0,20.7-.1,30c0,4-7.8,6.8-13.1,8.8-.7.2-1,.8-1,1.4,0,1.3,1,2.9,1,2.9,4.8,0,36.6-.2,42.3-.2.2,0,.4,0,.6,0,.1,0,.2,0,.2,0h0c.7-.7,1.1-1.5,1.1-2.3,0-.7-.3-1.2-1.1-1.5-7.2-2.7-14.7-6-15.1-7.2l-.5-57.2c3.4-2.8,20.5-4.4,20.5-4.4.1.4.2,1.7.2,3.3,0,2.6-.1,6.2-.1,8.5,0,1.2,0,2.1.1,2.4.3.2.8.4,1.4.6,1,.3,2.2.4,3,.2.5-.1.8-.4.8-.8l11.7-14.2c0,0,0-.2,0-.3,0-2.7-10.3-10.1-12.4-10.9-7.1-2.7-24.1,7.9-25.9,8-.3.6-.5.9-.7.9s0,0-.1,0c-.1-.1-.2-.5-.2-1.1-.1-8.6-.1-6.3-.1-6.9,0-.1,0-.2-.1-.3-.5-.8-1.8-1.4-3.1-1.4-.7,0-1.4.1-1.9.5"/>
</svg>