<?xml version="1.0" encoding="UTF-8"?>
<svg id="Camada_1" xmlns="http://www.w3.org/2000/svg" version="1.1" viewBox="0 0 138 116">
  <!-- Generator: Adobe Illustrator 30.2.1, SVG Export Plug-In . SVG Version: 2.1.1 Build 1)  -->
  <defs>
    <style>
      .st0 {
        fill: #12100c;
      }
    </style>
  </defs>
  <path class="st0" d="M67.6,17.4v80.9c.1,0,.1,0,.1,0,0,.1-.1.2-.2.2H7c0,0-1,1.2-1,1.2,5.1,0,9.9,0,14.5,0s2.7,0,4,0h9.8c5.2,0,10.1,0,14.5,0,6.1,0,11.4,0,15.8,0,11.2,0,22.3,0,33.5,0,11.8,0,23.5,0,35.3,0l-.9-1.2c-8.7,0-17.5,0-26.3,0-2.1,0-4.2,0-6.3,0-9,0-18,0-27,0-.1,0-.2,0-.2-.2V17.4s-2.3-3.4-2.3-3.4l-2.9,3.4Z"/>
  <path class="st0" d="M61,25.4v66.9c0,0,0,.2-.2.2H12.6s-.9,1-.9,1h53.6c0,0,.2,0,.2-.1,0-3.3,0-6.8,0-10.5,0-12.1-.1-26.6-.1-43.7s0-12.1,0-18.7l-4.5,5Z"/>
  <path class="st0" d="M54.2,32.9v52.7c0,0,0,.1-.1.1H18.7s-.9,1-.9,1h40.9c0,0,.1,0,.1,0V27.8c0,0-4.6,5.1-4.6,5.1Z"/>
  <polygon class="st0" points="47.6 40.3 47.6 78.9 47.5 78.9 24.8 78.9 24.3 79.5 24 79.9 51.9 79.8 51.9 79.8 52 35.5 47.6 40.3"/>
  <path class="st0" d="M40.6,48.4v23.5c0,0,0,0-.1,0h-9.5s-.9,1-.9,1h15.1c0,0,.1,0,.1-.1v-29.6s0,0,0,0l-4.7,5.3Z"/>
  <path class="st0" d="M74.9,39.2c0,17-.1,31.4-.1,43.4,0,3.8,0,7.3,0,10.7,0,0,0,.2.2.2h53.6s-.9-1-.9-1h-48.2c0,0-.2-.1-.2-.2V25.4s-4.5-5-4.5-5c0,6.6,0,12.9,0,18.8"/>
  <path class="st0" d="M81.5,86.6c0,0,0,.1.1.1h40.9s-.9-1-.9-1h-35.4c0,0-.1,0-.1-.1v-52.7s-4.7-5.1-4.7-5.1v58.8Z"/>
  <polygon class="st0" points="88.4 79.8 88.5 79.8 116.4 79.9 116 79.5 115.5 78.9 92.8 78.9 92.7 78.9 92.7 40.3 88.4 35.5 88.4 79.8"/>
  <path class="st0" d="M94.9,43.2v29.7c0,0,0,.1.1.1h15.1s-.9-1-.9-1h-9.5c0,0-.1,0-.1,0v-23.5s-4.8-5.3-4.8-5.3h0Z"/>
</svg>